# xmcd CD database file
#
# Track frame offsets:
#	150
#	15917
#	41032
#	61492
#	80955
#	98637
#	118860
#	134610
#	148647
#	166417
#	178485
#	196430
#	208695
#	222585
#	241367
#
# Disc length: 3528 seconds
#
# Revision: 1
# Processed by: cddbd v1.4PL0 Copyright (c) Steve Scherf et al.
# Submitted via: CDex 1.50Beta7
#
DISCID=eb0dc60f
DTITLE=Jerry ''Philadelphia'' Ricks - Many Miles Of Blues
DYEAR=2000
DGENRE=Blues
TTITLE0=Missouri River Blues
TTITLE1=What It's All About
TTITLE2=No More Ramblin'
TTITLE3=I Will Turn Your Money Green
TTITLE4=One More Time
TTITLE5=Vicksburg Blues
TTITLE6=Hey, Hey
TTITLE7=Many Miles of Blues
TTITLE8=Special Rider Blues
TTITLE9=Keep on Knocking
TTITLE10=Red Cross Blues
TTITLE11=I'm Sorry
TTITLE12=Louis Collins
TTITLE13=Undertaker Blues
TTITLE14=County Farm
EXTD=YEAR: 2000
EXTT0=
EXTT1=
EXTT2=
EXTT3=
EXTT4=
EXTT5=
EXTT6=
EXTT7=
EXTT8=
EXTT9=
EXTT10=
EXTT11=
EXTT12=
EXTT13=
EXTT14=
PLAYORDER=
